<?xml version="1.0" standalone="no"?>
<!DOCTYPE svg PUBLIC "-//W3C//DTD SVG 20010904//EN"
 "http://www.w3.org/TR/2001/REC-SVG-20010904/DTD/svg10.dtd">
<svg version="1.0" xmlns="http://www.w3.org/2000/svg"
 width="1086.000000pt" height="400.000000pt" viewBox="0 0 1086.000000 400.000000"
 preserveAspectRatio="xMidYMid meet">

<g transform="translate(0.000000,400.000000) scale(0.100000,-0.100000)"
fill="#000000" stroke="none">
<path d="M3770 3904 c-183 -20 -733 -105 -897 -140 -21 -4 -23 -10 -23 -73 0
-37 -3 -122 -6 -189 l-7 -120 104 -52 c142 -71 187 -105 200 -149 6 -24 9
-447 7 -1275 l-3 -1239 -148 -42 c-81 -24 -149 -44 -151 -46 -1 -2 3 -103 10
-224 7 -121 13 -226 13 -232 1 -10 152 -13 720 -13 l719 0 6 38 c3 20 8 105
11 187 l6 150 -126 70 c-176 98 -194 114 -206 195 -5 38 -8 316 -7 680 l3 615
140 22 c171 28 395 34 474 14 65 -17 133 -77 152 -136 9 -30 13 -195 16 -667
l4 -627 -68 -20 c-37 -10 -90 -26 -118 -33 l-50 -14 2 -144 c1 -80 5 -187 8
-237 l7 -93 689 0 689 0 0 53 c0 30 3 114 6 188 l6 134 -98 55 c-160 90 -210
125 -222 156 -8 20 -12 222 -15 664 -3 426 -8 659 -16 708 -42 258 -134 441
-276 549 -71 54 -153 93 -250 119 -98 26 -364 26 -485 1 -109 -23 -312 -92
-463 -156 -65 -28 -123 -51 -128 -51 -5 0 -9 239 -9 583 0 610 -1 622 -46 760
-11 32 -21 47 -32 46 -9 -1 -73 -7 -142 -15z"/>
<path d="M6386 2941 l-446 -406 0 -187 0 -188 170 0 170 0 0 -612 c0 -337 5
-663 10 -724 47 -528 338 -764 914 -741 145 6 237 20 411 63 98 24 367 103
374 110 2 1 -13 29 -32 61 -61 102 -107 202 -148 322 l-39 116 -77 -5 c-154
-10 -377 -5 -416 8 -47 17 -93 55 -113 95 -42 79 -43 132 -44 1320 0 625 -3
1137 -7 1137 -5 1 -70 9 -145 18 l-136 18 -446 -405z"/>
<path d="M7430 2610 l0 -439 201 -3 202 -3 10 25 c35 90 138 280 195 360 37
52 113 141 170 197 l102 103 0 100 0 100 -440 0 -440 0 0 -440z"/>
<path d="M9278 2779 c-308 -27 -567 -140 -763 -334 -271 -266 -400 -657 -382
-1155 16 -429 123 -722 340 -927 165 -155 353 -237 641 -279 153 -23 490 -15
621 15 325 72 555 215 729 451 189 256 282 665 247 1080 -32 367 -126 617
-306 808 -191 205 -447 312 -819 342 -141 11 -179 11 -308 -1z m275 -637 c232
-108 337 -432 307 -939 -15 -239 -48 -461 -73 -482 -7 -5 -48 -22 -92 -37 -71
-25 -94 -28 -210 -29 -126 0 -132 1 -198 32 -171 81 -279 281 -317 583 -22
185 -10 564 25 743 23 112 30 124 84 136 101 24 161 30 281 28 117 -3 129 -5
193 -35z"/>
<path d="M130 2713 c-1 -5 -7 -70 -13 -145 l-13 -136 68 -89 c88 -113 113
-167 273 -583 154 -399 625 -1619 632 -1637 4 -10 89 -13 377 -13 l371 1 127
287 c69 158 240 541 378 852 139 311 303 678 364 817 l112 251 -25 201 -24
201 -473 0 -473 0 -6 -42 c-12 -90 -35 -304 -35 -328 0 -22 12 -30 118 -74
136 -58 152 -69 152 -108 0 -15 -30 -108 -66 -205 -36 -98 -133 -358 -214
-578 -82 -220 -152 -408 -156 -419 -8 -21 -8 -20 -289 777 -92 263 -166 480
-163 483 3 2 63 18 134 35 71 17 133 35 137 39 5 4 -2 99 -15 211 l-24 204
-627 3 c-345 1 -627 -1 -627 -5z"/>
</g>
</svg>
